<svg width="24" height="24" viewBox="0 0 24 24" fill="none" xmlns="http://www.w3.org/2000/svg">
<path fill-rule="evenodd" clip-rule="evenodd" d="M8.64566 1.31934H14.6456C17.5087 1.31934 19.8512 3.66188 19.8512 6.52497V8.66623C18.7515 8.88672 17.9229 9.85786 17.9229 11.0226V13.3252V13.3996V15.8912H5.3681V13.3996V13.3252V11.0226C5.3681 9.85786 4.53958 8.88672 3.43982 8.66623V6.52497C3.43982 3.66188 5.78237 1.31934 8.64545 1.31934H8.64566Z" stroke="white" stroke-miterlimit="22.9256" stroke-linecap="round" stroke-linejoin="round"/>
<path fill-rule="evenodd" clip-rule="evenodd" d="M2.96509 8.61914C4.29244 8.61914 5.3684 9.6951 5.3684 11.0227V13.3253V13.3997V15.8913H7.66856H11.1192H15.6231H17.9232V13.3997V13.3253V11.0227C17.9232 9.6953 18.9992 8.61914 20.3265 8.61914C21.6539 8.61914 22.73 9.75544 22.73 11.0227C22.73 12.2897 21.8406 13.2282 20.6815 13.3997H20.6836V19.0634C20.6836 19.4929 20.3322 19.8443 19.9027 19.8443H19.4381H15.6229H11.119H7.66835H3.85312H3.38854C2.95904 19.8443 2.60762 19.4929 2.60762 19.0634V13.3997H2.60971C1.45065 13.228 0.561157 12.2293 0.561157 11.0227C0.561157 9.6953 1.63732 8.61914 2.96467 8.61914H2.96509Z" stroke="white" stroke-miterlimit="22.9256" stroke-linecap="round" stroke-linejoin="round"/>
<path fill-rule="evenodd" clip-rule="evenodd" d="M6.14933 12.5444H17.1423C17.5718 12.5444 17.9232 12.8958 17.9232 13.3251V15.8913H5.36841V13.3251C5.36841 12.8956 5.71982 12.5444 6.14912 12.5444H6.14933Z" stroke="white" stroke-miterlimit="22.9256" stroke-linecap="round" stroke-linejoin="round"/>
<path fill-rule="evenodd" clip-rule="evenodd" d="M3.75684 19.8442H5.76092L5.01027 22.6127H3.75684V19.8442Z" stroke="white" stroke-miterlimit="22.9256" stroke-linecap="round" stroke-linejoin="round"/>
<path fill-rule="evenodd" clip-rule="evenodd" d="M19.5349 19.8442H17.531L18.2817 22.6127H19.5349V19.8442Z" stroke="white" stroke-miterlimit="22.9256" stroke-linecap="round" stroke-linejoin="round"/>
</svg>
